<?xml version="1.0" standalone="no"?>
<!DOCTYPE svg PUBLIC "-//W3C//DTD SVG 20010904//EN"
 "http://www.w3.org/TR/2001/REC-SVG-20010904/DTD/svg10.dtd">
<svg version="1.0" xmlns="http://www.w3.org/2000/svg"
 width="90.000000pt" height="90.000000pt" viewBox="0 0 90.000000 90.000000"
 preserveAspectRatio="xMidYMid meet">
<metadata>
Created by potrace 1.11, written by Peter Selinger 2001-2013
</metadata>
<g transform="translate(0.000000,90.000000) scale(0.100000,-0.100000)"
fill="#000000" stroke="none">
<path d="M80 686 c0 -153 1 -165 23 -197 21 -31 64 -60 110 -73 15 -5 17 -22
17 -181 l0 -175 50 0 50 0 0 179 0 179 33 6 c41 8 94 60 107 107 6 18 10 98
10 177 l0 143 -42 -3 -43 -3 -3 -137 -3 -138 -34 0 -35 0 0 140 0 140 -40 0
-39 0 -3 -137 -3 -138 -37 -3 -38 -3 0 140 0 141 -40 0 -40 0 0 -164z"/>
<path d="M727 836 c-53 -19 -102 -59 -121 -100 -14 -29 -16 -63 -14 -198 l3
-163 48 -3 47 -3 0 -155 0 -154 50 0 50 0 0 395 c0 310 -3 395 -12 395 -7 -1
-30 -7 -51 -14z"/>
</g>
</svg>
